<?xml version="1.0" encoding="utf-8"?>
<!-- Generator: Adobe Illustrator 24.0.0, SVG Export Plug-In . SVG Version: 6.00 Build 0)  -->
<svg version="1.1" id="Layer_1" xmlns="http://www.w3.org/2000/svg" xmlns:xlink="http://www.w3.org/1999/xlink" x="0px" y="0px"
	 viewBox="0 0 446 157" style="enable-background:new 0 0 446 157;" xml:space="preserve">
<style type="text/css">
	.st0{fill:#FFFFFF;}
</style>
<g>
	<g>
		<path class="st0" d="M151.2,38.1h-0.3c-0.2,3.4-2.2,9.6-4.6,15.8L119,125H94.9L67.1,52.7c-2.4-6.2-4.6-12.4-4.8-15.8h-0.3v70.5
			h12.6V125H31.8v-17.5h10.5V22.1H29.8V4.6H74l31,80c1.9,4.6,4.1,9.5,4.8,16.3h0.3c0.5-6.9,2.4-11.7,6-21.5l28-74.8h43.7v17.5h-12.6
			v85.3h12V125H141v-17.5h10.1V38.1z"/>
		<path class="st0" d="M266.4,85.9h20.8l-1.7,39h-86v-17.5h10.8V22.1h-10.8V4.6h46.8v17.5h-10.8v85.3h29.6L266.4,85.9z"/>
		<path class="st0" d="M376,84.4h-41.5l-8.6,23h11.5V125h-44.7v-17.5h9.6L344.7,4.6h27.7l39.7,102.9h9.6V125h-47.8v-17.5h9.8
			L376,84.4z M361,40.7c-1.9-5.3-3.6-11.2-4.5-17.5h-0.3c-1.4,6.4-3.3,12-5.3,17.5l-9.3,25.1h28L361,40.7z"/>
	</g>
	<g>
		<path class="st0" d="M0,0v157h446v-8c0,0-430.1,0-438,0C8,141.4,8,0,8,0H0z"/>
	</g>
</g>
</svg>
